<mxfile host="app.diagrams.net" modified="2023-06-12T10:11:35.237Z" agent="Mozilla/5.0 (Windows NT 10.0; Win64; x64) AppleWebKit/537.36 (KHTML, like Gecko) Chrome/114.0.0.0 Safari/537.36" etag="98tGYzgLeVoif1SWfCdM" version="21.3.8" type="device">
  <diagram id="C5RBs43oDa-KdzZeNtuy" name="Page-1">
    <mxGraphModel dx="493" dy="853" grid="1" gridSize="10" guides="1" tooltips="1" connect="1" arrows="1" fold="1" page="1" pageScale="1" pageWidth="827" pageHeight="1169" math="0" shadow="0">
      <root>
        <mxCell id="WIyWlLk6GJQsqaUBKTNV-0" />
        <mxCell id="WIyWlLk6GJQsqaUBKTNV-1" parent="WIyWlLk6GJQsqaUBKTNV-0" />
        <mxCell id="QgjrdBWxFplCLH38DD7Z-0" value="" style="edgeStyle=orthogonalEdgeStyle;rounded=0;orthogonalLoop=1;jettySize=auto;html=1;" parent="WIyWlLk6GJQsqaUBKTNV-1" source="QgjrdBWxFplCLH38DD7Z-26" target="QgjrdBWxFplCLH38DD7Z-3" edge="1">
          <mxGeometry relative="1" as="geometry">
            <Array as="points">
              <mxPoint x="320.5200000000001" y="190" />
              <mxPoint x="320.5200000000001" y="190" />
            </Array>
          </mxGeometry>
        </mxCell>
        <mxCell id="QgjrdBWxFplCLH38DD7Z-1" value="Start&lt;br&gt;" style="ellipse;whiteSpace=wrap;html=1;" parent="WIyWlLk6GJQsqaUBKTNV-1" vertex="1">
          <mxGeometry x="257.5200000000001" width="120" height="80" as="geometry" />
        </mxCell>
        <mxCell id="QgjrdBWxFplCLH38DD7Z-2" value="" style="edgeStyle=orthogonalEdgeStyle;rounded=0;orthogonalLoop=1;jettySize=auto;html=1;" parent="WIyWlLk6GJQsqaUBKTNV-1" source="QgjrdBWxFplCLH38DD7Z-3" target="QgjrdBWxFplCLH38DD7Z-5" edge="1">
          <mxGeometry relative="1" as="geometry" />
        </mxCell>
        <mxCell id="QgjrdBWxFplCLH38DD7Z-3" value="i=n-1" style="whiteSpace=wrap;html=1;" parent="WIyWlLk6GJQsqaUBKTNV-1" vertex="1">
          <mxGeometry x="264.0200000000001" y="250" width="120" height="60" as="geometry" />
        </mxCell>
        <mxCell id="QgjrdBWxFplCLH38DD7Z-4" value="" style="edgeStyle=orthogonalEdgeStyle;rounded=0;orthogonalLoop=1;jettySize=auto;html=1;" parent="WIyWlLk6GJQsqaUBKTNV-1" source="QgjrdBWxFplCLH38DD7Z-5" target="QgjrdBWxFplCLH38DD7Z-8" edge="1">
          <mxGeometry relative="1" as="geometry" />
        </mxCell>
        <mxCell id="QgjrdBWxFplCLH38DD7Z-5" value="j=0" style="whiteSpace=wrap;html=1;" parent="WIyWlLk6GJQsqaUBKTNV-1" vertex="1">
          <mxGeometry x="264.0200000000001" y="340" width="120" height="60" as="geometry" />
        </mxCell>
        <mxCell id="QgjrdBWxFplCLH38DD7Z-6" value="" style="edgeStyle=orthogonalEdgeStyle;rounded=0;orthogonalLoop=1;jettySize=auto;html=1;" parent="WIyWlLk6GJQsqaUBKTNV-1" source="QgjrdBWxFplCLH38DD7Z-8" target="QgjrdBWxFplCLH38DD7Z-9" edge="1">
          <mxGeometry relative="1" as="geometry" />
        </mxCell>
        <mxCell id="QgjrdBWxFplCLH38DD7Z-7" value="" style="edgeStyle=orthogonalEdgeStyle;rounded=0;orthogonalLoop=1;jettySize=auto;html=1;" parent="WIyWlLk6GJQsqaUBKTNV-1" source="QgjrdBWxFplCLH38DD7Z-31" target="QgjrdBWxFplCLH38DD7Z-13" edge="1">
          <mxGeometry relative="1" as="geometry">
            <Array as="points">
              <mxPoint x="324.0200000000001" y="940" />
              <mxPoint x="324.0200000000001" y="940" />
            </Array>
          </mxGeometry>
        </mxCell>
        <mxCell id="QgjrdBWxFplCLH38DD7Z-8" value="i&amp;lt;n-1" style="rhombus;whiteSpace=wrap;html=1;" parent="WIyWlLk6GJQsqaUBKTNV-1" vertex="1">
          <mxGeometry x="284.0200000000001" y="510" width="80" height="80" as="geometry" />
        </mxCell>
        <mxCell id="QgjrdBWxFplCLH38DD7Z-9" value="End&lt;br&gt;" style="ellipse;whiteSpace=wrap;html=1;" parent="WIyWlLk6GJQsqaUBKTNV-1" vertex="1">
          <mxGeometry x="444.0200000000001" y="510" width="80" height="80" as="geometry" />
        </mxCell>
        <mxCell id="QgjrdBWxFplCLH38DD7Z-10" value="I&lt;br&gt;" style="text;html=1;strokeColor=none;fillColor=none;align=center;verticalAlign=middle;whiteSpace=wrap;rounded=0;" parent="WIyWlLk6GJQsqaUBKTNV-1" vertex="1">
          <mxGeometry x="280.0200000000001" y="590" width="60" height="30" as="geometry" />
        </mxCell>
        <mxCell id="QgjrdBWxFplCLH38DD7Z-11" style="edgeStyle=orthogonalEdgeStyle;rounded=0;orthogonalLoop=1;jettySize=auto;html=1;entryX=1;entryY=0.5;entryDx=0;entryDy=0;" parent="WIyWlLk6GJQsqaUBKTNV-1" source="QgjrdBWxFplCLH38DD7Z-29" target="QgjrdBWxFplCLH38DD7Z-16" edge="1">
          <mxGeometry relative="1" as="geometry">
            <Array as="points">
              <mxPoint x="484" y="660" />
              <mxPoint x="484" y="1210" />
            </Array>
          </mxGeometry>
        </mxCell>
        <mxCell id="X8SJr1hg6ni_RTA6WgJf-1" value="" style="edgeStyle=orthogonalEdgeStyle;rounded=0;orthogonalLoop=1;jettySize=auto;html=1;entryX=0;entryY=0.5;entryDx=0;entryDy=0;" edge="1" parent="WIyWlLk6GJQsqaUBKTNV-1" source="QgjrdBWxFplCLH38DD7Z-13" target="QgjrdBWxFplCLH38DD7Z-29">
          <mxGeometry relative="1" as="geometry">
            <mxPoint x="200" y="660" as="targetPoint" />
            <Array as="points">
              <mxPoint x="200" y="1120" />
              <mxPoint x="200" y="660" />
            </Array>
          </mxGeometry>
        </mxCell>
        <mxCell id="QgjrdBWxFplCLH38DD7Z-13" value="j++" style="whiteSpace=wrap;html=1;" parent="WIyWlLk6GJQsqaUBKTNV-1" vertex="1">
          <mxGeometry x="267.0200000000001" y="1090" width="120" height="60" as="geometry" />
        </mxCell>
        <mxCell id="QgjrdBWxFplCLH38DD7Z-14" value="H" style="text;html=1;strokeColor=none;fillColor=none;align=center;verticalAlign=middle;whiteSpace=wrap;rounded=0;" parent="WIyWlLk6GJQsqaUBKTNV-1" vertex="1">
          <mxGeometry x="350.0200000000001" y="520" width="60" height="30" as="geometry" />
        </mxCell>
        <mxCell id="QgjrdBWxFplCLH38DD7Z-15" style="edgeStyle=orthogonalEdgeStyle;rounded=0;orthogonalLoop=1;jettySize=auto;html=1;entryX=0;entryY=0.5;entryDx=0;entryDy=0;" parent="WIyWlLk6GJQsqaUBKTNV-1" source="QgjrdBWxFplCLH38DD7Z-16" target="QgjrdBWxFplCLH38DD7Z-8" edge="1">
          <mxGeometry relative="1" as="geometry">
            <mxPoint x="280.0200000000001" y="550" as="targetPoint" />
            <Array as="points">
              <mxPoint x="150.02000000000004" y="1210" />
              <mxPoint x="150.02000000000004" y="550" />
            </Array>
          </mxGeometry>
        </mxCell>
        <mxCell id="QgjrdBWxFplCLH38DD7Z-16" value="i++" style="whiteSpace=wrap;html=1;" parent="WIyWlLk6GJQsqaUBKTNV-1" vertex="1">
          <mxGeometry x="267.0200000000001" y="1180" width="120" height="60" as="geometry" />
        </mxCell>
        <mxCell id="QgjrdBWxFplCLH38DD7Z-17" style="edgeStyle=orthogonalEdgeStyle;rounded=0;orthogonalLoop=1;jettySize=auto;html=1;entryX=1;entryY=0.5;entryDx=0;entryDy=0;" parent="WIyWlLk6GJQsqaUBKTNV-1" source="QgjrdBWxFplCLH38DD7Z-31" edge="1" target="QgjrdBWxFplCLH38DD7Z-13">
          <mxGeometry relative="1" as="geometry">
            <mxPoint x="260.0200000000001" y="1200" as="targetPoint" />
            <Array as="points">
              <mxPoint x="430" y="785" />
              <mxPoint x="430" y="1120" />
            </Array>
          </mxGeometry>
        </mxCell>
        <mxCell id="QgjrdBWxFplCLH38DD7Z-18" value="" style="edgeStyle=orthogonalEdgeStyle;rounded=0;orthogonalLoop=1;jettySize=auto;html=1;" parent="WIyWlLk6GJQsqaUBKTNV-1" source="QgjrdBWxFplCLH38DD7Z-19" target="QgjrdBWxFplCLH38DD7Z-21" edge="1">
          <mxGeometry relative="1" as="geometry" />
        </mxCell>
        <mxCell id="QgjrdBWxFplCLH38DD7Z-19" value="csere = t[j]" style="whiteSpace=wrap;html=1;" parent="WIyWlLk6GJQsqaUBKTNV-1" vertex="1">
          <mxGeometry x="264.0200000000001" y="870" width="120" height="60" as="geometry" />
        </mxCell>
        <mxCell id="QgjrdBWxFplCLH38DD7Z-20" value="" style="edgeStyle=orthogonalEdgeStyle;rounded=0;orthogonalLoop=1;jettySize=auto;html=1;" parent="WIyWlLk6GJQsqaUBKTNV-1" source="QgjrdBWxFplCLH38DD7Z-21" target="QgjrdBWxFplCLH38DD7Z-22" edge="1">
          <mxGeometry relative="1" as="geometry" />
        </mxCell>
        <mxCell id="QgjrdBWxFplCLH38DD7Z-21" value="t[j] = t[i]" style="whiteSpace=wrap;html=1;" parent="WIyWlLk6GJQsqaUBKTNV-1" vertex="1">
          <mxGeometry x="264.0200000000001" y="940" width="120" height="60" as="geometry" />
        </mxCell>
        <mxCell id="QgjrdBWxFplCLH38DD7Z-22" value="t[i] = csere" style="whiteSpace=wrap;html=1;" parent="WIyWlLk6GJQsqaUBKTNV-1" vertex="1">
          <mxGeometry x="264.0200000000001" y="1010" width="120" height="60" as="geometry" />
        </mxCell>
        <mxCell id="QgjrdBWxFplCLH38DD7Z-23" value="I&lt;br&gt;" style="text;html=1;strokeColor=none;fillColor=none;align=center;verticalAlign=middle;whiteSpace=wrap;rounded=0;" parent="WIyWlLk6GJQsqaUBKTNV-1" vertex="1">
          <mxGeometry x="320.5200000000001" y="840" width="60" height="30" as="geometry" />
        </mxCell>
        <mxCell id="QgjrdBWxFplCLH38DD7Z-24" value="H&lt;br&gt;" style="text;html=1;strokeColor=none;fillColor=none;align=center;verticalAlign=middle;whiteSpace=wrap;rounded=0;" parent="WIyWlLk6GJQsqaUBKTNV-1" vertex="1">
          <mxGeometry x="390.5200000000001" y="750" width="60" height="30" as="geometry" />
        </mxCell>
        <mxCell id="QgjrdBWxFplCLH38DD7Z-25" value="" style="edgeStyle=orthogonalEdgeStyle;rounded=0;orthogonalLoop=1;jettySize=auto;html=1;" parent="WIyWlLk6GJQsqaUBKTNV-1" source="QgjrdBWxFplCLH38DD7Z-1" target="QgjrdBWxFplCLH38DD7Z-26" edge="1">
          <mxGeometry relative="1" as="geometry">
            <mxPoint x="320.5200000000001" y="160" as="sourcePoint" />
            <mxPoint x="320.5200000000001" y="250" as="targetPoint" />
            <Array as="points">
              <mxPoint x="320.5200000000001" y="160" />
              <mxPoint x="320.5200000000001" y="160" />
            </Array>
          </mxGeometry>
        </mxCell>
        <mxCell id="QgjrdBWxFplCLH38DD7Z-26" value="n = tomb hossz" style="rounded=0;whiteSpace=wrap;html=1;" parent="WIyWlLk6GJQsqaUBKTNV-1" vertex="1">
          <mxGeometry x="260.5200000000001" y="170" width="120" height="60" as="geometry" />
        </mxCell>
        <mxCell id="QgjrdBWxFplCLH38DD7Z-27" value="tomb = t" style="rounded=0;whiteSpace=wrap;html=1;" parent="WIyWlLk6GJQsqaUBKTNV-1" vertex="1">
          <mxGeometry x="260.5200000000001" y="90" width="120" height="60" as="geometry" />
        </mxCell>
        <mxCell id="QgjrdBWxFplCLH38DD7Z-28" value="" style="edgeStyle=orthogonalEdgeStyle;rounded=0;orthogonalLoop=1;jettySize=auto;html=1;" parent="WIyWlLk6GJQsqaUBKTNV-1" source="QgjrdBWxFplCLH38DD7Z-8" target="QgjrdBWxFplCLH38DD7Z-29" edge="1">
          <mxGeometry relative="1" as="geometry">
            <mxPoint x="324.0200000000001" y="520" as="sourcePoint" />
            <mxPoint x="327.0200000000001" y="1090" as="targetPoint" />
          </mxGeometry>
        </mxCell>
        <mxCell id="QgjrdBWxFplCLH38DD7Z-29" value="j&amp;lt;n" style="rhombus;whiteSpace=wrap;html=1;" parent="WIyWlLk6GJQsqaUBKTNV-1" vertex="1">
          <mxGeometry x="284.0200000000001" y="620" width="80" height="80" as="geometry" />
        </mxCell>
        <mxCell id="QgjrdBWxFplCLH38DD7Z-30" value="" style="edgeStyle=orthogonalEdgeStyle;rounded=0;orthogonalLoop=1;jettySize=auto;html=1;" parent="WIyWlLk6GJQsqaUBKTNV-1" source="QgjrdBWxFplCLH38DD7Z-29" target="QgjrdBWxFplCLH38DD7Z-31" edge="1">
          <mxGeometry relative="1" as="geometry">
            <mxPoint x="330.0200000000001" y="694" as="sourcePoint" />
            <mxPoint x="327.0200000000001" y="1090" as="targetPoint" />
            <Array as="points" />
          </mxGeometry>
        </mxCell>
        <mxCell id="QgjrdBWxFplCLH38DD7Z-31" value="t[i] &amp;gt; t[j]" style="rhombus;whiteSpace=wrap;html=1;" parent="WIyWlLk6GJQsqaUBKTNV-1" vertex="1">
          <mxGeometry x="257.5200000000001" y="720" width="133" height="130" as="geometry" />
        </mxCell>
        <mxCell id="QgjrdBWxFplCLH38DD7Z-32" value="H" style="text;html=1;strokeColor=none;fillColor=none;align=center;verticalAlign=middle;whiteSpace=wrap;rounded=0;" parent="WIyWlLk6GJQsqaUBKTNV-1" vertex="1">
          <mxGeometry x="377.5200000000001" y="630" width="60" height="30" as="geometry" />
        </mxCell>
        <mxCell id="QgjrdBWxFplCLH38DD7Z-33" value="I&lt;br&gt;" style="text;html=1;strokeColor=none;fillColor=none;align=center;verticalAlign=middle;whiteSpace=wrap;rounded=0;" parent="WIyWlLk6GJQsqaUBKTNV-1" vertex="1">
          <mxGeometry x="320.5200000000001" y="700" width="60" height="30" as="geometry" />
        </mxCell>
      </root>
    </mxGraphModel>
  </diagram>
</mxfile>
